<svg width="13" height="13" viewBox="0 0 13 13" fill="none" xmlns="http://www.w3.org/2000/svg">
<path d="M6.47831 0.391296C3.11831 0.391296 0.391357 3.11825 0.391357 6.47825C0.391357 9.83825 3.11831 12.5652 6.47831 12.5652C9.83831 12.5652 12.5653 9.83825 12.5653 6.47825C12.5653 3.11825 9.83831 0.391296 6.47831 0.391296ZM6.47831 11.3478C3.78788 11.3478 1.60875 9.16869 1.60875 6.47825C1.60875 5.35217 1.99223 4.31738 2.63744 3.49564L9.46092 10.3191C8.63918 10.9643 7.6044 11.3478 6.47831 11.3478ZM10.3192 9.46086L3.49571 2.63738C4.31744 1.99217 5.35223 1.60869 6.47831 1.60869C9.16875 1.60869 11.3479 3.78782 11.3479 6.47825C11.3479 7.60434 10.9644 8.63912 10.3192 9.46086Z" fill="#545454"/>
</svg>
